<svg xmlns="http://www.w3.org/2000/svg" id="Layer_1" data-name="Layer 1" viewBox="0 0 678.91 370.47"><defs><style>      .cls-1 {        fill: #008aff;        stroke-width: 0px;      }    </style></defs><path class="cls-1" d="m168.72,95.36h-45.06v85.94h45.06c34.06,0,50.3-16.25,50.3-42.97s-16.24-42.97-50.3-42.97m-11.53,179.21h-33.53v92.22H0V0h176.57C278.76,0,343.72,53.45,343.72,138.33c0,52.93-25.15,92.75-69.16,115.28l77.03,113.18h-132.04l-62.34-92.22Z"></path><rect class="cls-1" x="379.82" width="123.66" height="366.78"></rect><path class="cls-1" d="m678.91,308.16c0,34.41-27.9,62.31-62.31,62.31s-62.31-27.9-62.31-62.31,27.89-62.31,62.31-62.31,62.31,27.9,62.31,62.31"></path></svg>